<?xml version="1.0" encoding="UTF-8"?>
<svg version="1.1" xmlns="http://www.w3.org/2000/svg" width="16" height="16">
<path d="M0 0 C1.46414376 4.62416627 0.57809212 8.49603979 -1 13 C-2.75 15.0625 -2.75 15.0625 -5 16 C-8.25 16.1875 -8.25 16.1875 -11 16 C-11.33333333 14.33333333 -11.66666667 12.66666667 -12 11 C-12.28875 10.175 -12.5775 9.35 -12.875 8.5 C-13 6 -13 6 -10.6875 3.25 C-6.8211438 0.01305062 -4.97884484 -0.10823576 0 0 Z M-7 5 C-7.33 5.99 -7.66 6.98 -8 8 C-6.68 7.34 -5.36 6.68 -4 6 C-4.99 5.67 -5.98 5.34 -7 5 Z " fill="#000000" transform="translate(14,0)"/>
</svg>
